<svg display="none" xmlns="http://www.w3.org/2000/svg">

<!-- иконка НАЗАД -->
<symbol id="back" viewBox="0 0 24 24">
    <path d="M23.1429 12H0.857178" stroke="#D6C2B3" stroke-linecap="round" stroke-linejoin="round"/>
<path d="M6.85718 6L0.857178 12L6.85718 18" stroke-linecap="round" stroke-linejoin="round"/>
</symbol>

<!-- иконка МЕНЮ -->
<symbol id="burger" viewBox="0 0 24 14">
    <path d="M1.28564 4.5H22.7142" stroke="#D6C2B3" stroke-linecap="round" stroke-linejoin="round"/>
<path d="M1.28564 9.5H22.7142" stroke-linecap="round" stroke-linejoin="round"/>
</symbol>

<!-- иконка SHUFFLE -->
<symbol id="shuffle" viewBox="0 0 17 14">
    <path d="M7.23333 4.893C6.91237 4.4127 6.50207 4.01496 6.03039 3.72689C5.55871 3.43881 5.03672 3.26716 4.5 3.22363H1" stroke-linecap="round" stroke-linejoin="round"/>
<path d="M16 3.22363H12.5C10 3.22363 8.5 7.11537 8.5 7.11537C8.5 7.11537 7 11.0071 4.5 11.0071H1" stroke-linecap="round" stroke-linejoin="round"/>
<path d="M9.7666 9.34082C10.0876 9.82082 10.498 10.2182 10.9697 10.5058C11.4414 10.7933 11.9634 10.9644 12.4999 11.0072H15.9999" stroke-linecap="round" stroke-linejoin="round"/>
<path d="M14 1L16 3.22385L14 5.4477" stroke-linecap="round" stroke-linejoin="round"/>
<path d="M14 8.78345L16 11.0073L14 13.2311" stroke-linecap="round" stroke-linejoin="round"/>
</symbol>

<!-- иконка ОТКРЫТЬ ПОДРОБНОСТИ -->
<symbol id="down_list" viewBox="0 0 14 14">
    <path d="M0.5 3.8501L6.65 10.0001C6.69489 10.0479 6.74911 10.0861 6.80931 10.1121C6.8695 10.1382 6.9344 10.1516 7 10.1516C7.0656 10.1516 7.1305 10.1382 7.19069 10.1121C7.25089 10.0861 7.30511 10.0479 7.35 10.0001L13.5 3.8501" stroke-linecap="round" stroke-linejoin="round"/>
</symbol>

<!-- иконка ПЕРЕСЛАТЬ -->
<symbol id="forward" viewBox="0 0 24 24">
    <path d="M0.857178 21.4287C5.86289 17.143 7.09718 15.4287 12 15.4287H14.5715V20.5715L23.1429 11.143L14.5715 2.57153V7.71439H12.8572C4.28575 7.71439 2.57146 16.2858 0.857178 21.4287Z" stroke-linecap="round" stroke-linejoin="round"/>

</symbol>

<!-- иконка КОММЕНТИРОВАНИЕ -->
<symbol id="comment" viewBox="0 0 24 24">
    <path d="M13 1.00002C11.1288 0.997318 9.29097 1.49543 7.67723 2.44266C6.06349 3.38989 4.73264 4.75172 3.8228 6.38683C2.91295 8.02194 2.45726 9.87074 2.50302 11.7414C2.54877 13.612 3.0943 15.4363 4.083 17.025L1 23.5L7.474 20.417C8.8547 21.2755 10.4159 21.8015 12.0346 21.9538C13.6532 22.1061 15.2851 21.8805 16.8017 21.2946C18.3183 20.7087 19.6781 19.7787 20.774 18.5778C21.87 17.3769 22.672 15.9378 23.1171 14.3741C23.5621 12.8104 23.6379 11.1647 23.3386 9.5667C23.0392 7.96868 22.3729 6.46201 21.392 5.1654C20.4112 3.86879 19.1426 2.81766 17.6863 2.09483C16.2301 1.372 14.6258 0.997216 13 1.00002Z" stroke-linecap="round" stroke-linejoin="round"/>

</symbol>

<!-- иконка СЕРДЕЧКО -->
<symbol id="like" viewBox="0 0 24 24">
    <path d="M14.1701 20.4128C12.9493 21.6222 11.0585 21.6222 9.83769 20.4128L2.5567 13.1992C-2.31415 8.32822 4.04632 -2.43343 12.0039 5.52413C19.9475 -2.41944 26.308 8.34238 21.4511 13.1992L14.1701 20.4128Z"
          stroke-linecap="round" stroke-linejoin="round"/>
</symbol>

<!-- иконка КРЕСТИК -->
<symbol id="cross" viewBox="0 0 14 14">

<path d="M13.5 0.5L0.5 13.5" stroke-linecap="round" stroke-linejoin="round"/>
<path d="M0.5 0.5L13.5 13.5" stroke-linecap="round" stroke-linejoin="round"/>

</symbol>

<!-- ЛОГО MAROON CARDS -->
<symbol id="maroonlogo" viewBox="0 0 1835 180">

<circle cx="1578.5" cy="167.5" r="12.5"/>
<path d="M433 1.00098C468.23 1.13728 496.747 29.7381 496.747 65C496.747 94.8277 476.342 119.889 448.729 126.987L480.783 158.102L480.762 158.123C483.359 160.414 485 163.764 485 167.5C485 174.404 479.404 180 472.5 180C468.898 180 465.654 178.475 463.373 176.037L463.371 176.04L414.909 129H396V168H395.989C395.727 174.672 390.236 180 383.5 180C376.764 180 371.273 174.672 371.011 168H371V13H371.011C371.267 6.49412 376.494 1.26669 383 1.01074V1H433V1.00098ZM396 104H434.747V103.949C455.357 102.908 471.747 85.8683 471.747 65C471.747 44.1317 455.357 27.0919 434.747 26.0508V26H396V104Z" />
<path d="M1478 1.00098C1513.23 1.13728 1541.75 29.7381 1541.75 65C1541.75 94.8277 1521.34 119.889 1493.73 126.987L1525.78 158.102L1525.76 158.123C1528.36 160.414 1530 163.764 1530 167.5C1530 174.404 1524.4 180 1517.5 180C1513.9 180 1510.65 178.475 1508.37 176.037L1508.37 176.04L1459.91 129H1441V168H1440.99C1440.73 174.672 1435.24 180 1428.5 180C1421.76 180 1416.27 174.672 1416.01 168H1416V13H1416.01C1416.27 6.49412 1421.49 1.26669 1428 1.01074V1H1478V1.00098ZM1441 104H1479.75V103.949C1500.36 102.908 1516.75 85.8683 1516.75 65C1516.75 44.1317 1500.36 27.0919 1479.75 26.0508V26H1441V104Z"/>
<rect x="1566" y="65.8345" width="25" height="100.231"/>
<path d="M1628 1.00098C1663.06 1.13664 1691.48 29.4682 1691.74 64.5H1691.75V115.25H1691.74C1691.74 115.5 1691.75 115.75 1691.75 116C1691.75 151.262 1663.23 179.863 1628 179.999V180H1578V179.989C1571.49 179.733 1566.27 174.506 1566.01 168H1566V13H1566.01C1566.27 6.49412 1571.49 1.26669 1578 1.01074V1H1628V1.00098ZM1591 155H1629.75V154.949C1650.36 153.908 1666.75 136.868 1666.75 116C1666.75 115.743 1666.74 115.486 1666.74 115.23H1666.75V65.7695H1666.74C1666.74 65.5136 1666.75 65.2571 1666.75 65C1666.75 44.1317 1650.36 27.0919 1629.75 26.0508V26H1591V155Z"/>
<path d="M1811.1 1.00684C1811.23 1.00265 1811.37 1 1811.5 1C1818.4 1 1824 6.59644 1824 13.5C1824 20.4036 1818.4 26 1811.5 26C1811.37 26 1811.23 25.9964 1811.1 25.9922V26H1762V26.0068C1747.87 26.2733 1736.5 37.8076 1736.5 52C1736.5 66.1924 1747.87 77.7267 1762 77.9932V78H1782.88V78.0039C1783.04 78.0023 1783.21 78 1783.38 78C1811.55 78 1834.38 100.833 1834.38 129C1834.38 157.167 1811.55 180 1783.38 180C1783.03 180 1782.68 179.994 1782.33 179.987V180H1731.5C1724.6 180 1719 174.404 1719 167.5C1719 160.596 1724.6 155 1731.5 155H1783.88V154.993C1798.01 154.727 1809.38 143.192 1809.38 129C1809.38 114.808 1798.01 103.273 1783.88 103.007V103H1763.21V102.994C1762.97 102.997 1762.74 103 1762.5 103C1734.33 103 1711.5 80.1665 1711.5 52C1711.5 23.8335 1734.33 1 1762.5 1C1762.71 1 1762.93 1.00224 1763.14 1.00488V1H1811.1V1.00684Z"/>
<path d="M755.066 0.874023C783.233 0.874023 806.066 23.7075 806.066 51.874C806.066 61.1338 803.598 69.8166 799.284 77.3018L799.275 77.2959C797.036 81.1372 795.751 85.604 795.751 90.3711C795.751 95.2685 797.107 99.8488 799.461 103.76L799.406 103.788C803.644 111.224 806.066 119.829 806.066 129C806.066 157.167 783.233 180 755.066 180C740.477 180 727.319 173.872 718.023 164.052L718.036 164.038L662.186 108.188L606.336 164.038L606.349 164.052C597.053 173.872 583.895 180 569.306 180C541.139 180 518.306 157.167 518.306 129C518.306 119.829 520.728 111.224 524.966 103.788L524.911 103.76C527.265 99.8488 528.621 95.2685 528.621 90.3711C528.621 85.604 527.336 81.1372 525.097 77.2959L525.088 77.3018C520.774 69.8166 518.306 61.1338 518.306 51.874C518.306 23.7075 541.139 0.874023 569.306 0.874023C584.477 0.874095 598.098 7.49988 607.44 18.0137L607.415 18.04L662.186 72.8096L716.957 18.04L716.932 18.0137C726.274 7.49988 739.895 0.874095 755.066 0.874023ZM569.306 25.874C554.946 25.874 543.306 37.5146 543.306 51.874C543.306 56.388 544.457 60.6326 546.48 64.332L546.479 64.333C551.014 71.9549 553.621 80.8584 553.621 90.3711C553.621 99.4614 551.24 107.995 547.071 115.386L547.132 115.418C544.705 119.371 543.306 124.022 543.306 129C543.306 143.359 554.946 155 569.306 155C576.91 155 583.75 151.733 588.504 146.529L588.496 146.522L628.306 106.713V106.69L644.497 90.499L628.306 74.3076V74.2852L589.806 35.7861L589.765 35.8271C585.005 29.7667 577.61 25.8741 569.306 25.874ZM755.066 25.874C746.762 25.8741 739.367 29.7667 734.607 35.8271L734.566 35.7861L696.066 74.2852V74.3076L679.875 90.499L696.066 106.69V106.713L735.876 146.522L735.868 146.529C740.622 151.733 747.462 155 755.066 155C769.426 155 781.066 143.359 781.066 129C781.066 124.022 779.667 119.371 777.24 115.418L777.301 115.386C773.132 107.995 770.751 99.4614 770.751 90.3711C770.751 80.8584 773.358 71.9549 777.893 64.333L777.892 64.332C779.915 60.6326 781.066 56.388 781.066 51.874C781.066 37.5146 769.426 25.874 755.066 25.874Z"/>
<path d="M128 1C155.159 1 177.359 22.2299 178.912 49H179V137.5H179.001V167.5L178.996 167.822C178.825 174.577 173.297 180 166.501 180C159.705 180 154.176 174.577 154.005 167.822L154 167.5V51.5H153.993C153.727 37.3714 142.192 26 128 26C113.808 26 102.273 37.3714 102.007 51.5H102V137.5H102.001V167.5L101.996 167.822C101.825 174.577 96.2966 180 89.501 180C82.7052 180 77.1758 174.577 77.0049 167.822L77 167.5V51.5H76.9932C76.7267 37.3714 65.1924 26 51 26C36.8076 26 25.2733 37.3714 25.0068 51.5H25V137.5H25.001V167.5L24.9961 167.822C24.8252 174.577 19.2966 180 12.501 180C5.70517 180 0.175822 174.577 0.00488281 167.822L0.000976562 167.5V166.58C0.000809213 166.553 0 166.527 0 166.5C0 166.479 0.000868879 166.458 0.000976562 166.437V165H0V49H0.0878906C1.64078 22.2299 23.8406 1 51 1C66.3689 1 80.1497 7.79844 89.5 18.5518C98.8503 7.79844 112.631 1 128 1Z"/>
<path d="M275 1C309.677 1 337.912 28.5792 338.969 63H339V137.5H339.001V167.5L338.996 167.822C338.825 174.577 333.297 180 326.501 180C319.705 180 314.176 174.577 314.005 167.822L314 167.5V127H236V137.5H236.001V167.5L235.996 167.822C235.825 174.577 230.297 180 223.501 180C216.705 180 211.176 174.577 211.005 167.822L211 167.5V63H211.031C212.088 28.5792 240.323 1 275 1ZM275 26C254.132 26 237.092 42.3903 236.051 63H236V102H314V63H313.949C312.908 42.3903 295.868 26 275 26Z"/>
<path d="M897 1C932.012 1 960.458 29.1149 960.992 64H961V137.5H961.001V167.5L960.996 167.822C960.825 174.577 955.297 180 948.501 180C941.705 180 936.176 174.577 936.005 167.822L936 167.5V63H935.949C934.908 42.3903 917.868 26 897 26C876.132 26 859.092 42.3903 858.051 63H858V137.5H858.001V167.5L857.996 167.822C857.825 174.577 852.297 180 845.501 180C838.705 180 833.176 174.577 833.005 167.822L833 167.5V65C833 29.6538 861.654 1 897 1Z"/>
<path d="M1320 1C1354.68 1 1382.91 28.5792 1383.97 63H1384V167.5L1384 167.822C1383.82 174.577 1378.3 180 1371.5 180C1364.7 180 1359.17 174.577 1359 167.822L1359 167.5V137.5H1359V127H1281V167.5L1281 167.822C1280.82 174.577 1275.3 180 1268.5 180C1261.7 180 1256.17 174.577 1256 167.822L1256 167.5V137.5H1256V63H1256.03C1257.09 28.5792 1285.32 1 1320 1ZM1320 26C1299.13 26 1282.09 42.3903 1281.05 63H1281V102H1359V63H1358.95C1357.91 42.3903 1340.87 26 1320 26Z"/>
<path d="M1170 1C1192.21 0.999998 1211.78 12.3147 1223.25 29.4932L1223.18 29.542C1224.32 31.2691 1225.76 33.6152 1227.5 36.7529L1227.47 36.7607C1228.44 38.5399 1229 40.5807 1229 42.7529C1229 49.6565 1223.4 55.2529 1216.5 55.2529C1211.77 55.2529 1207.65 52.6246 1205.53 48.749L1205.52 48.7588L1204.24 46.5566L1204.23 46.5605C1204.18 46.4663 1204.13 46.3731 1204.08 46.2793L1203.49 45.2734L1203.5 45.2715C1196.69 33.8812 1184.24 26.2529 1170 26.2529C1149.13 26.2529 1132.09 42.6433 1131.05 63.2529H1131V117.747H1131.05C1132.09 138.357 1149.13 154.747 1170 154.747C1184.24 154.747 1196.69 147.119 1203.5 135.729L1203.49 135.727L1204.08 134.721C1204.13 134.627 1204.18 134.534 1204.23 134.439L1204.24 134.443L1205.52 132.241L1205.53 132.251C1207.65 128.375 1211.77 125.747 1216.5 125.747C1223.4 125.747 1229 131.344 1229 138.247C1229 140.419 1228.44 142.46 1227.47 144.239L1227.5 144.247C1225.76 147.385 1224.32 149.731 1223.18 151.458L1223.25 151.507C1211.78 168.685 1192.21 180 1170 180C1134.99 180 1106.54 151.885 1106.01 117H1106V64H1106.01C1106.54 29.1149 1134.99 1 1170 1Z"/>
</symbol>

</svg>