<svg width="24" height="24" viewBox="0 0 24 24" fill="none" xmlns="http://www.w3.org/2000/svg">
<path d="M13 1.00002C11.1288 0.997318 9.29097 1.49543 7.67723 2.44266C6.06349 3.38989 4.73264 4.75172 3.8228 6.38683C2.91295 8.02194 2.45726 9.87074 2.50302 11.7414C2.54877 13.612 3.0943 15.4363 4.083 17.025L1 23.5L7.474 20.417C8.8547 21.2755 10.4159 21.8015 12.0346 21.9538C13.6532 22.1061 15.2851 21.8805 16.8017 21.2946C18.3183 20.7087 19.6781 19.7787 20.774 18.5778C21.87 17.3769 22.672 15.9378 23.1171 14.3741C23.5621 12.8104 23.6379 11.1647 23.3386 9.5667C23.0392 7.96868 22.3729 6.46201 21.392 5.1654C20.4112 3.86879 19.1426 2.81766 17.6863 2.09483C16.2301 1.372 14.6258 0.997216 13 1.00002Z" stroke="#D6C2B3" stroke-linecap="round" stroke-linejoin="round"/>
</svg>
