<svg width="17" height="14" viewBox="0 0 17 14" fill="none" xmlns="http://www.w3.org/2000/svg">
<path d="M7.23333 4.893C6.91237 4.4127 6.50207 4.01496 6.03039 3.72689C5.55871 3.43881 5.03672 3.26716 4.5 3.22363H1" stroke="#D6C2B3" stroke-linecap="round" stroke-linejoin="round"/>
<path d="M16 3.22363H12.5C10 3.22363 8.5 7.11537 8.5 7.11537C8.5 7.11537 7 11.0071 4.5 11.0071H1" stroke="#D6C2B3" stroke-linecap="round" stroke-linejoin="round"/>
<path d="M9.7666 9.34082C10.0876 9.82082 10.498 10.2182 10.9697 10.5058C11.4414 10.7933 11.9634 10.9644 12.4999 11.0072H15.9999" stroke="#D6C2B3" stroke-linecap="round" stroke-linejoin="round"/>
<path d="M14 1L16 3.22385L14 5.4477" stroke="#D6C2B3" stroke-linecap="round" stroke-linejoin="round"/>
<path d="M14 8.78345L16 11.0073L14 13.2311" stroke="#D6C2B3" stroke-linecap="round" stroke-linejoin="round"/>
</svg>
